<?xml version="1.0" standalone="no"?>
<!DOCTYPE svg PUBLIC "-//W3C//DTD SVG 20010904//EN"
 "http://www.w3.org/TR/2001/REC-SVG-20010904/DTD/svg10.dtd">
<svg version="1.0" xmlns="http://www.w3.org/2000/svg"
 width="938.000000pt" height="938.000000pt" viewBox="0 0 938.000000 938.000000"
 preserveAspectRatio="xMidYMid meet">
<metadata>
Created by potrace 1.11, written by Peter Selinger 2001-2013
</metadata>
<g transform="translate(0.000000,938.000000) scale(0.100000,-0.100000)"
fill="#000000" stroke="none">
<path d="M4250 7660 c-30 -5 -80 -11 -110 -14 -30 -3 -64 -7 -75 -10 -11 -2
-42 -7 -69 -10 -79 -11 -386 -92 -441 -117 -11 -5 -51 -20 -90 -35 -495 -183
-977 -560 -1301 -1019 -124 -174 -268 -440 -324 -595 -7 -19 -18 -48 -25 -65
-36 -83 -121 -393 -130 -475 -2 -14 -13 -83 -21 -123 -29 -157 -34 -683 -9
-930 2 -23 7 -73 10 -112 3 -38 8 -77 10 -85 2 -8 7 -31 10 -50 5 -31 27 -150
41 -218 3 -13 11 -41 18 -62 l13 -38 -31 -4 c-69 -8 -397 4 -463 16 -10 2 -47
7 -83 11 -36 4 -68 9 -71 11 -4 2 -24 6 -45 10 -22 3 -89 18 -150 33 -122 31
-144 31 -191 -2 -74 -50 -81 -158 -15 -219 30 -28 109 -57 244 -87 114 -27
137 -31 278 -47 25 -3 59 -8 75 -11 17 -3 146 -6 288 -7 l259 -2 33 -74 c99
-225 223 -408 385 -570 110 -110 208 -186 335 -259 100 -57 133 -62 196 -31
50 26 78 70 74 118 -7 78 -31 108 -130 162 -130 71 -281 200 -389 330 -72 87
-198 303 -208 354 -2 13 4 20 22 22 250 39 543 137 822 274 56 28 104 47 108
43 4 -4 38 -78 77 -163 40 -85 87 -189 106 -230 19 -41 46 -100 60 -130 14
-30 44 -95 67 -145 23 -49 53 -115 67 -145 24 -51 54 -117 124 -267 16 -35 42
-91 58 -125 108 -236 113 -243 164 -266 21 -9 162 -12 564 -12 530 0 536 0
574 22 71 40 72 46 74 458 1 405 1 402 68 477 114 126 309 126 439 0 97 -94
100 -112 103 -514 3 -382 3 -382 75 -431 l34 -23 581 3 580 3 48 23 c55 27
177 123 252 199 257 259 498 630 663 1018 84 198 159 427 196 595 2 8 7 33 11
55 5 22 9 42 10 45 0 3 5 28 10 55 4 28 10 57 11 65 2 8 6 35 9 60 3 25 7 56
10 70 20 101 27 502 11 650 -13 129 -15 142 -35 250 -115 619 -458 1193 -967
1619 -289 242 -618 422 -989 541 -129 41 -194 59 -280 75 -16 3 -50 9 -75 15
-47 9 -148 25 -235 36 -75 10 -1251 13 -1315 4z m390 -291 c30 -5 69 -11 86
-14 116 -18 337 -112 464 -198 165 -111 310 -265 407 -432 68 -116 132 -305
148 -435 12 -99 4 -294 -15 -395 -5 -27 -12 -61 -14 -75 -32 -170 -123 -388
-233 -557 -92 -142 -223 -286 -353 -389 -59 -47 -252 -174 -264 -174 -3 0 -37
-15 -76 -34 -109 -54 -330 -121 -425 -131 -16 -1 -56 -6 -88 -9 -31 -4 -93 -9
-136 -10 -52 -3 -89 -10 -107 -21 -93 -55 -97 -183 -8 -244 32 -22 46 -25 125
-23 357 5 696 112 1009 319 273 179 482 405 648 701 23 39 38 72 35 72 -3 0 0
6 6 13 22 27 104 243 127 336 10 43 43 201 49 241 4 25 9 119 10 210 4 183 -9
284 -51 429 -9 31 -17 61 -19 66 -1 6 -5 19 -9 30 -34 91 -114 243 -180 340
-57 85 -239 279 -316 338 -19 14 -44 33 -55 41 -18 14 -14 15 50 10 388 -29
781 -148 1120 -339 126 -71 300 -193 417 -292 53 -45 250 -244 288 -291 19
-24 45 -56 58 -70 12 -15 39 -52 60 -82 20 -30 43 -61 50 -68 23 -25 141 -230
185 -324 88 -184 154 -381 188 -562 12 -61 23 -120 25 -131 25 -130 25 -711
-1 -755 -1 -3 -6 -32 -9 -65 -4 -33 -11 -76 -16 -95 -5 -19 -12 -53 -16 -75
-19 -129 -108 -409 -192 -610 -21 -50 -144 -296 -175 -350 -40 -70 -154 -245
-189 -290 -96 -123 -133 -167 -204 -240 -72 -74 -143 -134 -182 -154 -20 -10
-430 -16 -882 -11 l-45 0 -1 248 c0 136 -4 268 -7 293 -18 121 -79 239 -170
332 -72 73 -103 95 -179 130 -237 108 -486 62 -668 -125 -78 -80 -113 -147
-147 -283 -3 -11 -6 -148 -8 -305 -1 -157 -3 -287 -4 -290 0 -3 -148 -4 -328
-3 -181 1 -356 2 -390 3 -35 0 -63 4 -63 9 0 5 -23 58 -51 118 -28 59 -55 117
-59 128 -4 11 -99 218 -210 460 -203 441 -233 506 -235 515 -1 3 -19 43 -41
90 -105 225 -118 242 -198 242 -37 0 -61 -9 -114 -40 -74 -44 -214 -116 -307
-157 -61 -27 -238 -94 -265 -100 -8 -2 -33 -10 -55 -18 -22 -8 -83 -24 -135
-37 -148 -34 -140 -33 -217 -45 -35 -5 -42 -4 -46 12 -9 28 -29 105 -33 128
-14 63 -25 123 -29 146 -2 14 -8 59 -14 100 -39 267 -48 799 -17 989 3 14 7
48 11 75 3 28 15 93 27 145 11 52 21 100 22 105 13 56 76 254 101 310 126 293
223 459 392 670 419 524 1023 861 1701 949 115 15 364 18 442 5z"/>
<path d="M3008 5745 c-1 -2 -21 -6 -43 -9 -106 -17 -217 -102 -264 -201 -30
-64 -34 -86 -33 -172 1 -59 7 -85 31 -135 133 -278 511 -285 654 -13 30 56 32
67 32 160 0 90 -3 106 -29 159 -54 109 -163 190 -272 202 -27 3 -54 7 -61 9
-6 2 -13 2 -15 0z m88 -337 c5 -13 9 -27 9 -33 2 -17 -25 -65 -38 -67 -68 -8
-101 8 -113 58 -8 32 22 76 57 85 31 8 75 -15 85 -43z"/>
</g>
</svg>
